<svg width="20" height="20" viewBox="0 0 20 20" fill="none" xmlns="http://www.w3.org/2000/svg">
<path fill-rule="evenodd" clip-rule="evenodd" d="M11.3373 5.10615L18.6766 9.72995C18.8791 9.85754 19.0002 10.0785 19.0002 10.3171C19.0002 10.5547 18.8791 10.7766 18.6766 10.9032L11.3373 15.527C11.2254 15.5982 11.0969 15.6343 10.9684 15.6343C10.8528 15.6343 10.7382 15.6047 10.6337 15.5474C10.4118 15.4253 10.275 15.1933 10.275 14.9409L10.274 11.0097L2.69343 11.0101C2.31066 11.0101 2 10.6995 2 10.3167C2 9.93391 2.31066 9.62326 2.69343 9.62326L10.274 9.62288L10.275 5.69325C10.275 5.43992 10.4118 5.20785 10.6337 5.08581C10.8547 4.96469 11.1256 4.97208 11.3373 5.10615ZM11.6618 6.94975L11.6617 10.3026C11.6618 10.3073 11.6618 10.312 11.6618 10.3167L11.6609 10.3302L11.6618 13.6834L17.0059 10.3171L11.6618 6.94975Z" fill="#FE0000"/>
</svg>
