<svg width="974" height="40" viewBox="0 0 974 40" fill="none" xmlns="http://www.w3.org/2000/svg">
<g clip-path="url(#clip0)">
<rect y="1" width="4" height="53" fill="white"/>
<rect x="440" y="1" width="4" height="53" fill="white"/>
<rect x="220" y="1" width="4" height="53" fill="white"/>
<rect x="660" y="1" width="4" height="53" fill="white"/>
<rect x="880" y="1" width="4" height="53" fill="white"/>
<rect x="44" y="1" width="4" height="53" fill="white"/>
<rect x="484" y="1" width="4" height="53" fill="white"/>
<rect x="264" y="1" width="4" height="53" fill="white"/>
<rect x="704" y="1" width="4" height="53" fill="white"/>
<rect x="924" y="1" width="4" height="53" fill="white"/>
<rect x="88" y="1" width="4" height="53" fill="white"/>
<rect x="528" y="1" width="4" height="53" fill="white"/>
<rect x="308" y="1" width="4" height="53" fill="white"/>
<rect x="748" y="1" width="4" height="53" fill="white"/>
<rect x="968" y="1" width="4" height="53" fill="white"/>
<rect x="132" y="1" width="4" height="53" fill="white"/>
<rect x="572" y="1" width="4" height="53" fill="white"/>
<rect x="352" y="1" width="4" height="53" fill="white"/>
<rect x="792" y="1" width="4" height="53" fill="white"/>
<rect x="176" y="1" width="4" height="53" fill="white"/>
<rect x="616" y="1" width="4" height="53" fill="white"/>
<rect x="396" y="1" width="4" height="53" fill="white"/>
<rect x="836" y="1" width="4" height="53" fill="white"/>
</g>
<defs>
<clipPath id="clip0">
<rect width="974" height="40" fill="white"/>
</clipPath>
</defs>
</svg>
