<svg width="28" height="28" viewBox="0 0 28 28" fill="none" xmlns="http://www.w3.org/2000/svg">
<g clip-path="url(#clip0)">
<path d="M16.727 13.7014C16.727 15.1498 15.5529 16.324 14.1045 16.324C12.6561 16.324 11.4819 15.1498 11.4819 13.7014C11.4819 12.253 12.6561 11.0789 14.1045 11.0789C15.5529 11.0789 16.727 12.253 16.727 13.7014Z" fill="white"/>
<path d="M20.2377 9.06137C20.1116 8.71975 19.9105 8.41054 19.6492 8.15673C19.3954 7.89539 19.0864 7.69427 18.7445 7.5682C18.4673 7.46053 18.0508 7.33237 17.2838 7.29746C16.454 7.25962 16.2052 7.25146 14.1045 7.25146C12.0035 7.25146 11.7548 7.25941 10.9252 7.29725C10.1581 7.33237 9.74142 7.46053 9.46441 7.5682C9.12258 7.69427 8.81337 7.89539 8.55977 8.15673C8.29844 8.41054 8.09731 8.71954 7.97104 9.06137C7.86337 9.33859 7.73521 9.75527 7.70029 10.5223C7.66245 11.3519 7.6543 11.6007 7.6543 13.7016C7.6543 15.8024 7.66245 16.0511 7.70029 16.8809C7.73521 17.648 7.86337 18.0645 7.97104 18.3417C8.09731 18.6835 8.29823 18.9925 8.55956 19.2463C8.81337 19.5077 9.12237 19.7088 9.4642 19.8349C9.74142 19.9427 10.1581 20.0709 10.9252 20.1058C11.7548 20.1437 12.0033 20.1516 14.1043 20.1516C16.2054 20.1516 16.4542 20.1437 17.2836 20.1058C18.0506 20.0709 18.4673 19.9427 18.7445 19.8349C19.4307 19.5702 19.973 19.0279 20.2377 18.3417C20.3454 18.0645 20.4735 17.648 20.5086 16.8809C20.5465 16.0511 20.5544 15.8024 20.5544 13.7016C20.5544 11.6007 20.5465 11.3519 20.5086 10.5223C20.4737 9.75527 20.3456 9.33859 20.2377 9.06137V9.06137ZM14.1045 17.7415C11.8731 17.7415 10.0642 15.9328 10.0642 13.7014C10.0642 11.47 11.8731 9.66139 14.1045 9.66139C16.3356 9.66139 18.1445 11.47 18.1445 13.7014C18.1445 15.9328 16.3356 17.7415 14.1045 17.7415ZM18.3042 10.4458C17.7828 10.4458 17.3601 10.0231 17.3601 9.50167C17.3601 8.98025 17.7828 8.55751 18.3042 8.55751C18.8256 8.55751 19.2484 8.98025 19.2484 9.50167C19.2482 10.0231 18.8256 10.4458 18.3042 10.4458Z" fill="white"/>
<path d="M14.1043 0C6.53836 0 0.402832 6.13552 0.402832 13.7015C0.402832 21.2675 6.53836 27.403 14.1043 27.403C21.6703 27.403 27.8058 21.2675 27.8058 13.7015C27.8058 6.13552 21.6703 0 14.1043 0ZM21.9245 16.9452C21.8865 17.7827 21.7533 18.3545 21.5589 18.855C21.1501 19.9119 20.3147 20.7473 19.2579 21.156C18.7576 21.3505 18.1855 21.4834 17.3482 21.5217C16.5092 21.5599 16.2412 21.5691 14.1045 21.5691C11.9676 21.5691 11.6998 21.5599 10.8606 21.5217C10.0233 21.4834 9.4513 21.3505 8.951 21.156C8.42582 20.9585 7.9504 20.6488 7.55735 20.2485C7.1572 19.8556 6.84757 19.38 6.65 18.855C6.45556 18.3547 6.32239 17.7827 6.28434 16.9454C6.24566 16.1062 6.23667 15.8382 6.23667 13.7015C6.23667 11.5648 6.24566 11.2968 6.28413 10.4578C6.32218 9.62027 6.45515 9.04847 6.64958 8.54796C6.84715 8.02299 7.15699 7.54736 7.55735 7.15452C7.95019 6.75416 8.42582 6.44453 8.95079 6.24696C9.4513 6.05252 10.0231 5.91956 10.8606 5.8813C11.6996 5.84304 11.9676 5.83384 14.1043 5.83384C16.241 5.83384 16.509 5.84304 17.348 5.88151C18.1855 5.91956 18.7573 6.05252 19.2579 6.24675C19.7828 6.44432 20.2585 6.75416 20.6515 7.15452C21.0517 7.54757 21.3615 8.02299 21.5589 8.54796C21.7535 9.04847 21.8865 9.62027 21.9247 10.4578C21.963 11.2968 21.972 11.5648 21.972 13.7015C21.972 15.8382 21.963 16.1062 21.9245 16.9452V16.9452Z" fill="white"/>
</g>
<defs>
<clipPath id="clip0">
<rect width="27.403" height="27.403" fill="white" transform="translate(0.402832)"/>
</clipPath>
</defs>
</svg>
