<svg width="32" height="32" viewBox="0 0 32 32" fill="none" xmlns="http://www.w3.org/2000/svg">
<g clip-path="url(#clip0)">
<path d="M1.99961 2.17723C-0.515052 4.78923 -0.000385374 7.5639 -0.000385374 15.9932C-0.000385374 22.9932 -1.22172 30.0106 5.17028 31.6626C7.16628 32.1759 24.8516 32.1759 26.8449 31.6599C29.5063 30.9732 31.6716 28.8146 31.9676 25.0506C32.0089 24.5252 32.0089 7.47057 31.9663 6.93457C31.6516 2.92523 29.1836 0.614566 25.9316 0.146566C25.1863 0.0385658 25.0369 0.00656578 21.2129 -0.000100892C7.64895 0.00656578 4.67561 -0.597434 1.99961 2.17723Z" fill="url(#paint0_linear)"/>
<path d="M16.0002 7.00868C12.3138 7.00868 8.81324 6.68101 7.47616 10.1098C6.92386 11.526 7.00406 13.3652 7.00406 15.9987C7.00406 18.3097 6.92995 20.4816 7.47616 21.8866C8.8102 25.3175 12.3392 24.9888 15.9982 24.9888C19.5282 24.9888 23.1679 25.356 24.5212 21.8866C25.0746 20.4562 24.9933 18.6444 24.9933 15.9987C24.9933 12.4867 25.1873 10.2194 23.4826 8.51716C21.7567 6.7926 19.4226 7.00868 15.9962 7.00868H16.0002ZM15.1941 8.62875C22.8836 8.61658 23.8623 7.76241 23.3222 19.6284C23.1303 23.8252 19.9323 23.3647 16.0012 23.3647C8.83355 23.3647 8.62745 23.1597 8.62745 15.9947C8.62745 8.74643 9.19599 8.63281 15.1941 8.62672V8.62875ZM20.8024 10.121C20.2064 10.121 19.7232 10.6039 19.7232 11.1994C19.7232 11.7949 20.2064 12.2777 20.8024 12.2777C21.3983 12.2777 21.8816 11.7949 21.8816 11.1994C21.8816 10.6039 21.3983 10.121 20.8024 10.121ZM16.0002 11.382C13.4489 11.382 11.3808 13.4494 11.3808 15.9987C11.3808 18.548 13.4489 20.6145 16.0002 20.6145C18.5516 20.6145 20.6186 18.548 20.6186 15.9987C20.6186 13.4494 18.5516 11.382 16.0002 11.382ZM16.0002 13.002C19.9648 13.002 19.9699 18.9954 16.0002 18.9954C12.0367 18.9954 12.0306 13.002 16.0002 13.002Z" fill="white"/>
</g>
<defs>
<linearGradient id="paint0_linear" x1="2.06097" y1="29.956" x2="31.8016" y2="4.21587" gradientUnits="userSpaceOnUse">
<stop stop-color="#FFDD55"/>
<stop offset="0.5" stop-color="#FF543E"/>
<stop offset="1" stop-color="#C837AB"/>
</linearGradient>
<clipPath id="clip0">
<rect width="32" height="32" rx="16" fill="white"/>
</clipPath>
</defs>
</svg>
