<svg width="149" height="39" viewBox="0 0 149 39" fill="none" xmlns="http://www.w3.org/2000/svg">
<path d="M27.3612 16.7233H20.4922V17.7018H26.3044C26.0892 20.2655 24.0735 22.3203 20.7466 22.3203C17.0675 22.3203 14.5821 19.6197 14.5821 16.2537C14.5821 12.8877 17.0675 10.187 20.6683 10.187C22.821 10.187 24.7389 11.3221 25.6391 13.0442L26.5589 12.4963C25.4238 10.5197 23.2124 9.18896 20.6683 9.18896C16.5 9.18896 13.5449 12.3397 13.5449 16.2537C13.5449 20.1676 16.5 23.3184 20.7466 23.3184C24.8367 23.3184 27.3612 20.559 27.3612 17.2517V16.7233Z" fill="white"/>
<path d="M30.9978 22.1246V9.40423H29.9606V23.1031H37.4559V22.1246H30.9978Z" fill="white"/>
<path d="M44.919 23.3184C48.8721 23.3184 51.9837 20.1676 51.9837 16.2537C51.9837 12.3397 48.8721 9.18896 44.919 9.18896C40.9659 9.18896 37.8543 12.3397 37.8543 16.2537C37.8543 20.1676 40.9659 23.3184 44.919 23.3184ZM44.919 22.3203C41.5334 22.3203 38.8915 19.6197 38.8915 16.2537C38.8915 12.8877 41.5334 10.187 44.919 10.187C48.3046 10.187 50.9465 12.8877 50.9465 16.2537C50.9465 19.6197 48.3046 22.3203 44.919 22.3203Z" fill="white"/>
<path d="M63.2639 23.1031H64.4576L61.0525 17.3496C62.7942 16.8799 64.0662 15.3143 64.0662 13.4552C64.0662 11.2242 62.2463 9.40423 60.0153 9.40423H54.614V23.1031H55.6512V17.4866H59.9762L63.2639 23.1031ZM55.6512 10.3827H60.0153C61.6787 10.3827 63.029 11.7526 63.029 13.4552C63.029 15.1382 61.6787 16.5081 60.0153 16.5081H55.6512V10.3827Z" fill="white"/>
<path d="M75.7445 9.40423H74.5704L70.2454 16.4689L65.9009 9.40423H64.7267L69.717 17.467V23.1031H70.7542V17.467L75.7445 9.40423Z" fill="white"/>
<path d="M87.7089 9.42254H83.0513V23.1214H84.0885V17.8963H87.7089C90.1747 17.8963 91.9751 16.0763 91.9751 13.6692C91.9751 11.2425 90.1747 9.42254 87.7089 9.42254ZM87.7089 16.9178H84.0885V10.401H87.7089C89.5876 10.401 90.9379 11.7709 90.9379 13.6692C90.9379 15.5479 89.5876 16.9178 87.7089 16.9178Z" fill="white"/>
<path d="M100.723 23.3367C104.677 23.3367 107.788 20.1859 107.788 16.272C107.788 12.358 104.677 9.20728 100.723 9.20728C96.7703 9.20728 93.6587 12.358 93.6587 16.272C93.6587 20.1859 96.7703 23.3367 100.723 23.3367ZM100.723 22.3386C97.3379 22.3386 94.6959 19.638 94.6959 16.272C94.6959 12.906 97.3379 10.2053 100.723 10.2053C104.109 10.2053 106.751 12.906 106.751 16.272C106.751 19.638 104.109 22.3386 100.723 22.3386Z" fill="white"/>
<path d="M110.418 9.42254V23.1214H111.456V9.42254H110.418Z" fill="white"/>
<path d="M123.854 9.42254V21.2036L115.752 9.42254H114.852V23.1214H115.889V11.3404L123.972 23.1214H124.892V9.42254H123.854Z" fill="white"/>
<path d="M136.702 9.42254H127.035V10.401H131.34V23.1214H132.397V10.401H136.702V9.42254Z" fill="white"/>
<path d="M105.765 16.1982C105.765 19.0267 103.472 21.3197 100.643 21.3197C97.8149 21.3197 95.522 19.0267 95.522 16.1982C95.522 13.3696 97.8149 11.0767 100.643 11.0767C103.472 11.0767 105.765 13.3696 105.765 16.1982Z" fill="#FE0000"/>
<path d="M65.332 28.5553H64.6501L62.1058 32.7688L59.5614 28.5553H58.8896V35.6796H59.4291V29.3492L62.065 33.7255H62.1566L64.7926 29.3492V35.6796H65.332V28.5553Z" fill="white"/>
<path d="M70.061 35.7916C71.6283 35.7916 72.6766 34.8043 72.6766 33.2981V28.5553H72.1372V33.2981C72.1372 34.4583 71.4146 35.2725 70.061 35.2725C68.7175 35.2725 67.9949 34.4583 67.9949 33.2981V28.5553H67.4555V33.2981C67.4555 34.8043 68.4936 35.7916 70.061 35.7916Z" fill="white"/>
<path d="M76.9816 35.7916C78.3963 35.7916 79.3225 35.0181 79.3225 33.8375C79.3225 32.606 78.2233 32.2091 76.9613 31.7918C75.9435 31.4559 75.2209 31.1913 75.2209 30.3364C75.2209 29.5425 75.8417 28.9624 76.829 28.9624C77.8467 28.9624 78.3963 29.5527 78.6609 30.1939L79.1189 29.9395C78.7729 29.1151 77.9994 28.4434 76.829 28.4434C75.6178 28.4434 74.6713 29.1863 74.6713 30.3567C74.6713 31.5984 75.74 31.9343 76.9307 32.321C78.0197 32.667 78.7729 32.9927 78.7729 33.8476C78.7729 34.6618 78.1724 35.2725 76.9816 35.2725C75.8112 35.2725 75.0886 34.6924 74.8443 33.8375L74.3762 34.1123C74.7018 35.1198 75.6484 35.7916 76.9816 35.7916Z" fill="white"/>
<path d="M81.0561 28.5553V35.6796H81.5955V28.5553H81.0561Z" fill="white"/>
<path d="M87.1174 35.7916C88.4507 35.7916 89.6109 35.0995 90.1911 34.0512L89.7127 33.7764C89.2445 34.672 88.2471 35.2725 87.1174 35.2725C85.2448 35.2725 83.9522 33.868 83.9522 32.1175C83.9522 30.3669 85.2448 28.9624 87.1174 28.9624C88.237 28.9624 89.2242 29.5527 89.6924 30.428L90.1707 30.1532C89.5804 29.1151 88.4303 28.4434 87.1174 28.4434C84.9496 28.4434 83.4128 30.0819 83.4128 32.1175C83.4128 34.153 84.9496 35.7916 87.1174 35.7916Z" fill="white"/>
<path fill-rule="evenodd" clip-rule="evenodd" d="M0.952838 0.952838H148.047V32.3965H94.5692V33.3493H149V0H0V33.3493H54.55V32.3965H0.952838V0.952838Z" fill="white"/>
</svg>
