<svg width="39" height="39" viewBox="0 0 39 39" fill="none" xmlns="http://www.w3.org/2000/svg">
<g clip-path="url(#clip0)">
<path d="M30.8194 24.8028C32.0315 22.7746 32.8356 20.2093 32.9916 17.6711C33.0906 16.042 32.7276 14.3318 31.9415 12.7237C30.7084 10.1975 28.5902 8.77833 26.544 7.40721C25.0169 6.38412 23.5738 5.41803 22.5537 4.03791L22.3706 3.79189C21.7676 2.98182 21.0865 2.06373 20.9785 1.29267C20.8705 0.512597 20.1625 -0.0424524 19.3884 0.00255161C18.6023 0.0565564 17.9933 0.707614 17.9933 1.49668V28.2291C16.7361 27.467 15.188 26.999 13.4929 26.999C9.35849 26.999 5.99219 29.6902 5.99219 32.9995C5.99219 36.3088 9.35849 39 13.4929 39C17.6272 39 20.9935 36.3088 20.9935 32.9995V15.5139C23.2467 16.375 26.9341 18.5682 27.9481 23.6897C27.7591 23.9687 27.5791 24.2687 27.3691 24.5087C26.82 25.1298 26.88 26.0779 27.5041 26.6239C28.1222 27.176 29.0702 27.11 29.6193 26.4889C30.0213 26.0329 30.3784 25.4988 30.7204 24.9408C30.7564 24.8988 30.7895 24.8538 30.8194 24.8028Z" fill="white"/>
</g>
<defs>
<clipPath id="clip0">
<rect width="39" height="39" fill="white"/>
</clipPath>
</defs>
</svg>
