<svg width="29" height="28" viewBox="0 0 29 28" fill="none" xmlns="http://www.w3.org/2000/svg">
<g clip-path="url(#clip0)">
<path d="M14.5072 0C6.94029 0 0.805664 6.13434 0.805664 13.7015C0.805664 21.2686 6.94029 27.403 14.5072 27.403C22.074 27.403 28.2086 21.2686 28.2086 13.7015C28.2086 6.13434 22.074 0 14.5072 0ZM21.0826 15.665C21.7212 16.2888 22.3969 16.8758 22.9701 17.5641C23.2241 17.8685 23.4635 18.1833 23.6458 18.5374C23.9059 19.0423 23.671 19.5959 23.2191 19.6259L20.4121 19.6254C19.6871 19.6854 19.1102 19.393 18.6238 18.8973C18.2355 18.5023 17.8753 18.0804 17.5013 17.672C17.3485 17.5043 17.1876 17.3465 16.9959 17.2223C16.6132 16.9734 16.2807 17.0496 16.0615 17.4494C15.8381 17.8562 15.7871 18.3069 15.7658 18.7597C15.7352 19.4216 15.5356 19.5945 14.8715 19.6257C13.4524 19.6921 12.1059 19.4768 10.8545 18.7614C9.75055 18.1303 8.89608 17.2397 8.15151 16.2313C6.7016 14.2656 5.59119 12.1081 4.59346 9.8887C4.36891 9.38885 4.53319 9.12141 5.08462 9.11104C6.00076 9.09338 6.9169 9.09562 7.83304 9.1102C8.20589 9.11609 8.45259 9.32942 8.59584 9.68125C9.09092 10.8993 9.69785 12.0582 10.4584 13.133C10.6611 13.4193 10.868 13.7046 11.1626 13.9068C11.4878 14.1299 11.7356 14.0562 11.889 13.6932C11.9871 13.4624 12.0294 13.2157 12.0507 12.9685C12.1236 12.1216 12.1323 11.275 12.0061 10.4314C11.9277 9.90355 11.6308 9.56266 11.1046 9.46286C10.8366 9.41212 10.8758 9.31288 11.0062 9.15982C11.2324 8.89518 11.4444 8.73146 11.8679 8.73146L15.0394 8.7309C15.5392 8.82902 15.6514 9.05329 15.7192 9.55678L15.722 13.0812C15.7161 13.276 15.8199 13.8535 16.1697 13.9811C16.4501 14.0736 16.6351 13.8487 16.8027 13.6713C17.5633 12.8642 18.1052 11.9116 18.5904 10.9257C18.8046 10.4909 18.9894 10.0409 19.1688 9.59014C19.3022 9.25682 19.5097 9.09282 19.8859 9.09843L22.9399 9.10207C23.0299 9.10207 23.1212 9.10291 23.2104 9.11833C23.7251 9.20636 23.8661 9.42782 23.7069 9.92991C23.4562 10.7188 22.9693 11.3759 22.4933 12.0347C21.9831 12.74 21.4389 13.4207 20.9338 14.1291C20.4695 14.7767 20.5063 15.1027 21.0826 15.665Z" fill="white"/>
</g>
<defs>
<clipPath id="clip0">
<rect width="27.403" height="27.403" fill="white" transform="translate(0.805664)"/>
</clipPath>
</defs>
</svg>
