<svg width="28" height="28" viewBox="0 0 28 28" fill="none" xmlns="http://www.w3.org/2000/svg">
<g clip-path="url(#clip0)">
<path d="M11.9951 16.2684L16.452 13.7015L11.9951 11.1345V16.2684Z" fill="white"/>
<path d="M13.7015 0C6.13552 0 0 6.13552 0 13.7015C0 21.2675 6.13552 27.403 13.7015 27.403C21.2675 27.403 27.403 21.2675 27.403 13.7015C27.403 6.13552 21.2675 0 13.7015 0ZM22.2628 13.7155C22.2628 13.7155 22.2628 16.4942 21.9103 17.8341C21.7128 18.5676 21.1345 19.1458 20.4011 19.3432C19.0612 19.6959 13.7015 19.6959 13.7015 19.6959C13.7015 19.6959 8.35583 19.6959 7.0019 19.3292C6.26849 19.1318 5.69021 18.5533 5.49264 17.8199C5.13994 16.4942 5.13994 13.7015 5.13994 13.7015C5.13994 13.7015 5.13994 10.923 5.49264 9.58306C5.69 8.84965 6.2825 8.25715 7.0019 8.05979C8.34182 7.70709 13.7015 7.70709 13.7015 7.70709C13.7015 7.70709 19.0612 7.70709 20.4011 8.0738C21.1345 8.27116 21.7128 8.84965 21.9103 9.58306C22.2771 10.923 22.2628 13.7155 22.2628 13.7155V13.7155Z" fill="white"/>
</g>
<defs>
<clipPath id="clip0">
<rect width="27.403" height="27.403" fill="white"/>
</clipPath>
</defs>
</svg>
