<svg width="48" height="48" viewBox="0 0 48 48" fill="none" xmlns="http://www.w3.org/2000/svg">
<rect width="48" height="48" rx="12" fill="#FEE600"/>
<path fill-rule="evenodd" clip-rule="evenodd" d="M23.9999 14C24.3297 14 24.6383 14.1626 24.8248 14.4347L26.3871 16.7143L29.038 17.4957C29.3543 17.589 29.6043 17.8322 29.7063 18.1459C29.8082 18.4596 29.7489 18.8033 29.5478 19.0647L27.8625 21.255L27.9385 24.0176C27.9475 24.3473 27.7935 24.6602 27.5266 24.8541C27.2598 25.048 26.9146 25.0978 26.6038 24.9873L23.9999 24.0613L21.396 24.9873C21.0853 25.0978 20.74 25.048 20.4732 24.8541C20.2064 24.6602 20.0523 24.3473 20.0614 24.0176L20.1374 21.255L18.4521 19.0647C18.251 18.8033 18.1917 18.4596 18.2936 18.1459C18.3955 17.8322 18.6455 17.589 18.9619 17.4957L21.6127 16.7143L23.1751 14.4347C23.3615 14.1626 23.6701 14 23.9999 14ZM23.9999 16.7689L23.0614 18.1383C22.9314 18.328 22.7399 18.4671 22.5193 18.5321L20.927 19.0015L21.9393 20.3172C22.0796 20.4995 22.1527 20.7246 22.1464 20.9545L22.1007 22.614L23.6649 22.0578C23.8816 21.9807 24.1183 21.9807 24.335 22.0578L25.8991 22.614L25.8535 20.9545C25.8471 20.7246 25.9203 20.4995 26.0605 20.3172L27.0729 19.0015L25.4805 18.5321C25.2599 18.4671 25.0684 18.328 24.9384 18.1383L23.9999 16.7689Z" fill="#2B2D33"/>
<path d="M15 15V17H17V15L15 15Z" fill="#2B2D33"/>
<path d="M31 15V17H33V15H31Z" fill="#2B2D33"/>
<path d="M32 30V32H34V30H32Z" fill="#2B2D33"/>
<path d="M14 32V30H16V32H14Z" fill="#2B2D33"/>
<path fill-rule="evenodd" clip-rule="evenodd" d="M32 24V26H34V24H36V22H34V20H32V22H30V24H32ZM32 24V22H34V24H32Z" fill="#2B2D33"/>
<path d="M14 26V24H16V26H14Z" fill="#2B2D33"/>
<path d="M16 22H18V24H16V22Z" fill="#2B2D33"/>
<path d="M14 22V20H16V22H14Z" fill="#2B2D33"/>
<path d="M14 22H12V24H14V22Z" fill="#2B2D33"/>
<path d="M23 26V34H25V26H23Z" fill="#2B2D33"/>
<path d="M30.8321 28.5547L29.8397 30.0432C29.2922 30.8645 29 31.8295 29 32.8167V34H27V32.8167C27 31.4347 27.4091 30.0836 28.1756 28.9338L29.1679 27.4453L30.8321 28.5547Z" fill="#2B2D33"/>
<path d="M18.1603 30.0432L17.1679 28.5547L18.8321 27.4453L19.8244 28.9338C20.5909 30.0836 21 31.4347 21 32.8167V34H19V32.8167C19 31.8295 18.7078 30.8645 18.1603 30.0432Z" fill="#2B2D33"/>
</svg>
