<svg width="48" height="48" viewBox="0 0 48 48" fill="none" xmlns="http://www.w3.org/2000/svg">
<rect width="48" height="48" rx="12" fill="#FEE600"/>
<path d="M13.2929 15.2929C13.4804 15.1054 13.7348 15 14 15H34C34.5523 15 35 15.4477 35 16L35 32C35 32.5523 34.5523 33 34 33L19 33V31L33 31L33 17L15 17V22H13L13 16C13 15.7348 13.1054 15.4804 13.2929 15.2929Z" fill="#2B2D33"/>
<path d="M12.3623 26.9043C12.3805 26.043 12.6768 25.3571 13.251 24.8467C13.8434 24.3135 14.6546 24.0469 15.6846 24.0469C16.6553 24.0469 17.4414 24.293 18.043 24.7852C18.6354 25.2728 18.9316 25.9085 18.9316 26.6924C18.9316 27.6631 18.444 28.4355 17.4688 29.0098C17.013 29.2741 16.7054 29.5111 16.5459 29.7207C16.3864 29.9303 16.3066 30.2038 16.3066 30.541V30.9033H14.4951L14.4814 30.5068C14.4359 29.9782 14.5111 29.5384 14.707 29.1875C14.8984 28.8548 15.2334 28.5472 15.7119 28.2646C16.154 28.0003 16.4548 27.7633 16.6143 27.5537C16.7783 27.3441 16.8604 27.0775 16.8604 26.7539C16.8604 26.4258 16.7419 26.1569 16.5049 25.9473C16.2633 25.7376 15.9489 25.6328 15.5615 25.6328C15.1696 25.6328 14.8529 25.749 14.6113 25.9814C14.3698 26.2093 14.2376 26.5169 14.2148 26.9043H12.3623Z" fill="#2B2D33"/>
<path d="M15.4248 34.1709C15.1149 34.1709 14.8529 34.0661 14.6387 33.8564C14.4199 33.6514 14.3105 33.3984 14.3105 33.0977C14.3105 32.7969 14.4199 32.5417 14.6387 32.332C14.8529 32.127 15.1149 32.0244 15.4248 32.0244C15.7347 32.0244 15.999 32.127 16.2178 32.332C16.4365 32.5417 16.5459 32.7969 16.5459 33.0977C16.5459 33.3984 16.4365 33.6514 16.2178 33.8564C15.999 34.0661 15.7347 34.1709 15.4248 34.1709Z" fill="#2B2D33"/>
<path d="M24 25.6238L21.7934 27.8611L20.347 26.4041L22.554 24.1656L21.7934 23.398V21.8825L21.2652 21.3492V22.6709L20.8055 23.1347L18.9572 21.27L18.5 21.731C18.5033 21.3833 18.5721 20.3769 19.4184 19.5379C20.3317 18.6518 21.318 19.051 21.6553 19.3916L23.5027 21.2553L23.0314 21.7301L24 22.7073L24.9684 21.7301L24.4973 21.2553L26.3444 19.3916C26.6816 19.051 27.6679 18.6518 28.5812 19.5379C29.4277 20.3769 29.4965 21.3833 29.5 21.731L29.0428 21.27L27.1943 23.1347L26.7348 22.6709V21.3492L26.2062 21.8825V23.398L25.4457 24.1656L29.0917 27.843L27.6455 29.3L24 25.6238Z" fill="#2B2D33"/>
</svg>
