<svg width="48" height="48" viewBox="0 0 48 48" fill="none" xmlns="http://www.w3.org/2000/svg">
<rect width="48" height="48" rx="12" fill="#FEE600"/>
<path d="M24.4777 18.5459C24.3325 18.0761 23.6675 18.0761 23.5223 18.5459L23.1646 19.7033C23.0999 19.9129 22.9062 20.0557 22.6869 20.0557H21.4781C20.9999 20.0557 20.7946 20.6627 21.1746 20.9531L22.195 21.7325C22.3615 21.8598 22.431 22.0773 22.3692 22.2775L21.9897 23.5054C21.846 23.9705 22.3841 24.3459 22.771 24.0504L23.6965 23.3433C23.8757 23.2064 24.1243 23.2064 24.3035 23.3433L25.229 24.0504C25.6159 24.3459 26.154 23.9705 26.0103 23.5054L25.6308 22.2775C25.569 22.0773 25.6385 21.8598 25.805 21.7325L26.8254 20.9531C27.2054 20.6627 27.0001 20.0557 26.5219 20.0557H25.3131C25.0938 20.0557 24.9001 19.9129 24.8354 19.7033L24.4777 18.5459Z" fill="#2B2D33"/>
<path fill-rule="evenodd" clip-rule="evenodd" d="M17 15C17 14.4477 17.4477 14 18 14H30C30.5523 14 31 14.4477 31 15V16H34C34.5523 16 35 16.4477 35 17V17.1005C35 19.2222 34.1571 21.2571 32.6569 22.7574L30.2071 25.2071C30.1792 25.235 30.1501 25.2608 30.12 25.2847C29.8018 26.0857 29.4101 26.8502 28.9662 27.5408C27.9909 29.0578 26.6081 30.4451 25 30.8684V32H29V34H19V32H23V30.8684C21.3919 30.4451 20.0091 29.0578 19.0338 27.5408C18.5899 26.8502 18.1982 26.0857 17.88 25.2847C17.8499 25.2608 17.8208 25.235 17.7929 25.2071L15.3431 22.7574C13.8429 21.2571 13 19.2222 13 17.1005V17C13 16.4477 13.4477 16 14 16H17V15ZM17 21C17 21.2003 17.0067 21.4023 17.0197 21.6055L16.7574 21.3431C15.8464 20.4322 15.2586 19.2584 15.0678 18H17V21ZM30.9803 21.6055L31.2426 21.3431C32.1536 20.4322 32.7414 19.2584 32.9322 18H31V21C31 21.2003 30.9933 21.4023 30.9803 21.6055ZM19 16V21C19 22.7783 19.6774 24.8434 20.7162 26.4592C21.7941 28.1359 23.0331 29 24 29C24.9669 29 26.2059 28.1359 27.2838 26.4592C28.3226 24.8434 29 22.7783 29 21V16H19Z" fill="#2B2D33"/>
</svg>
